<?xml version="1.0" encoding="UTF-8" standalone="no"?>
<!DOCTYPE svg PUBLIC "-//W3C//DTD SVG 1.1//EN" "http://www.w3.org/Graphics/SVG/1.1/DTD/svg11.dtd">
<!-- Created with Vectornator (http://vectornator.io/) -->
<svg height="100%" stroke-miterlimit="10" style="fill-rule:nonzero;clip-rule:evenodd;stroke-linecap:round;stroke-linejoin:round;" version="1.1" viewBox="0 0 1947.86 512.485" width="100%" xml:space="preserve" xmlns="http://www.w3.org/2000/svg" xmlns:vectornator="http://vectornator.io" xmlns:xlink="http://www.w3.org/1999/xlink">
<defs/>
<g id="Calque-1" vectornator:layerName="Calque 1">
<g opacity="1" vectornator:layerName="Grouper 1">
<path d="M4.99882 463.665C2.23805 463.665 0 461.427 0 458.666L0 9.17598C0 6.41521 2.23805 4.17716 4.99882 4.17716L121.399 4.17716C146.81 4.17716 166.956 9.83373 181.837 21.1469C196.718 32.46 207.379 48.5595 213.818 69.4453C220.258 90.3311 223.478 115.22 223.478 144.112C223.478 171.96 220.78 196.196 215.385 216.821C209.989 237.445 200.373 253.414 186.536 264.727C172.699 276.041 153.075 281.697 127.664 281.697L95.3299 281.697C92.5691 281.697 90.3311 283.935 90.3311 286.696L90.3311 458.666C90.3311 461.427 88.093 463.665 85.3322 463.665L4.99882 463.665ZM90.3311 194.199C90.3311 196.96 92.5691 199.198 95.3299 199.198L95.5525 199.198C112.609 199.198 123.052 194.412 126.881 184.839C130.71 175.267 132.625 161.169 132.625 142.546C132.625 125.141 130.754 111.695 127.012 102.21C123.27 92.7242 114.437 87.9814 100.513 87.9814L95.3299 87.9814C92.5691 87.9814 90.3311 90.2195 90.3311 92.9802L90.3311 194.199Z" fill="#ffff" fill-rule="nonzero" opacity="1" stroke="none"/>
<path d="M257.456 463.665C254.695 463.665 252.457 461.426 252.457 458.665L252.457 9.17658C252.457 6.41548 254.695 4.17716 257.456 4.17716L338.833 4.17716C341.594 4.17716 343.832 6.41548 343.832 9.17658L343.832 163.392C343.832 166.153 346.071 168.392 348.832 168.392L382.171 168.392C384.932 168.392 387.17 166.153 387.17 163.392L387.17 9.17658C387.17 6.41548 389.409 4.17716 392.17 4.17716L473.546 4.17716C476.307 4.17716 478.546 6.41548 478.546 9.17658L478.546 458.665C478.546 461.426 476.307 463.665 473.546 463.665L392.17 463.665C389.409 463.665 387.17 461.426 387.17 458.665L387.17 260.328C387.17 257.567 384.932 255.329 382.171 255.329L348.832 255.329C346.071 255.329 343.832 257.567 343.832 260.328L343.832 458.665C343.832 461.426 341.594 463.665 338.833 463.665L257.456 463.665Z" fill="#ffff" fill-rule="nonzero" opacity="1" stroke="none"/>
<path d="M524.272 463.665C521.511 463.665 519.273 461.427 519.273 458.666L519.273 9.17575C519.273 6.41511 521.511 4.17716 524.272 4.17716L660.252 4.17716C683.749 4.17716 701.502 9.52914 713.511 20.2331C725.52 30.9371 733.57 45.9052 737.66 65.1376C741.75 84.3699 743.795 106.953 743.795 132.886C743.795 157.949 740.619 177.964 734.266 192.933C727.913 207.901 715.948 218.257 698.369 224C712.815 226.959 722.953 234.138 728.784 245.539C734.614 256.939 737.53 271.689 737.53 289.79L737.53 458.666C737.53 461.427 735.292 463.665 732.531 463.665L651.936 463.665C649.175 463.665 646.937 461.427 646.937 458.666L646.937 283.786C646.937 270.384 644.196 262.073 638.714 258.853C633.231 255.633 624.398 254.023 612.215 254.023L612.215 458.666C612.215 461.427 609.977 463.665 607.216 463.665L524.272 463.665ZM612.737 169.398C612.737 172.158 614.975 174.396 617.736 174.396L634.928 174.396C647.634 174.396 653.986 160.56 653.986 132.886C653.986 114.959 652.594 103.211 649.809 97.6411C647.024 92.0715 641.803 89.2868 634.145 89.2868L617.736 89.2868C614.975 89.2868 612.737 91.5247 612.737 94.2854L612.737 169.398Z" fill="#ffff" fill-rule="nonzero" opacity="1" stroke="none"/>
<path d="M779.097 463.665C776.326 463.665 774.08 461.418 774.08 458.647L774.08 9.19466C774.08 6.42357 776.326 4.17716 779.097 4.17716L952.857 4.17716C955.628 4.17716 957.875 6.42357 957.875 9.19466L957.875 87.9243C957.875 90.6954 955.628 92.9418 952.857 92.9418L872.561 92.9418C869.79 92.9418 867.544 95.1882 867.544 97.9593L867.544 177.472C867.544 180.243 869.79 182.49 872.561 182.49L949.202 182.49C951.973 182.49 954.22 184.736 954.22 187.507L954.22 263.887C954.22 266.658 951.973 268.905 949.202 268.905L872.561 268.905C869.79 268.905 867.544 271.151 867.544 273.922L867.544 369.099C867.544 371.87 869.79 374.117 872.561 374.117L958.862 374.117C961.633 374.117 963.879 376.363 963.879 379.134L963.879 458.647C963.879 461.418 961.633 463.665 958.862 463.665L779.097 463.665Z" fill="#ffff" fill-rule="nonzero" opacity="1" stroke="none"/>
<path d="M1096.38 7.7539C1092.08 7.75393 1087.87 7.90178 1083.82 8.22265C1079.77 8.54352 1075.84 9.01854 1072.04 9.66015C1068.24 10.302 1064.58 11.1035 1061.04 12.0664C1057.49 13.029 1054.08 14.1578 1050.79 15.4414C1047.5 16.725 1044.33 18.1807 1041.29 19.7851C1038.25 21.3896 1035.35 23.141 1032.57 25.0664C1029.79 26.9918 1027.13 29.0703 1024.6 31.3164C1022.07 33.5627 1019.66 35.9677 1017.38 38.5351C1015.11 41.1024 1013 43.8332 1011.01 46.6914C1009.02 49.5496 1007.15 52.5422 1005.45 55.6914C1003.74 58.8406 1002.18 62.1575 1000.76 65.5976C999.337 69.0379 998.083 72.6165 996.946 76.3476C995.809 80.0789 994.798 83.9502 993.946 87.9726C993.093 91.9946 992.389 96.1594 991.821 100.473C991.252 104.786 990.824 109.244 990.54 113.848C990.256 118.452 990.102 123.203 990.102 128.098C990.102 132.775 990.371 137.394 990.852 141.941C991.334 146.488 992.046 150.962 993.008 155.379C993.971 159.795 995.158 164.155 996.602 168.441C998.046 172.727 999.739 176.942 1001.66 181.098C1003.59 185.253 1005.76 189.353 1008.16 193.379C1010.57 197.404 1013.21 201.36 1016.1 205.254C1018.99 209.148 1022.14 212.959 1025.51 216.723C1028.88 220.486 1032.47 224.183 1036.32 227.816L1041.48 232.723L1046.63 237.629L1051.79 242.504L1056.95 247.41L1062.1 252.316L1067.26 257.191L1072.41 262.098L1077.57 266.973C1079.09 268.409 1080.57 269.831 1082.01 271.223C1083.45 272.614 1084.87 274.001 1086.23 275.348C1087.58 276.694 1088.89 278.015 1090.16 279.316C1091.44 280.618 1092.66 281.872 1093.85 283.129C1095.04 284.385 1096.21 285.636 1097.32 286.848C1098.43 288.059 1099.48 289.243 1100.51 290.41C1101.53 291.577 1102.5 292.726 1103.45 293.848C1104.39 294.97 1105.31 296.052 1106.16 297.129C1107.02 298.206 1107.84 299.289 1108.63 300.379C1109.43 301.469 1110.21 302.587 1110.95 303.691C1111.68 304.795 1112.37 305.886 1113.04 307.004C1113.71 308.122 1114.34 309.248 1114.95 310.379C1115.55 311.51 1116.13 312.672 1116.66 313.816C1117.2 314.961 1117.69 316.095 1118.16 317.254C1118.64 318.412 1119.1 319.582 1119.51 320.754C1119.92 321.926 1120.32 323.099 1120.66 324.285C1121.01 325.471 1121.33 326.714 1121.63 327.973C1121.94 329.23 1122.22 330.518 1122.48 331.848C1122.74 333.178 1122.98 334.54 1123.2 335.941C1123.41 337.343 1123.62 338.78 1123.79 340.254C1123.96 341.728 1124.1 343.24 1124.23 344.785C1124.36 346.331 1124.48 347.917 1124.57 349.535C1124.66 351.153 1124.71 352.814 1124.76 354.504C1124.8 356.194 1124.82 357.898 1124.82 359.66C1124.82 361.053 1124.81 362.397 1124.76 363.691C1124.71 364.986 1124.64 366.245 1124.54 367.441C1124.44 368.638 1124.32 369.781 1124.16 370.879C1124.01 371.978 1123.83 373.034 1123.63 374.035C1123.43 375.036 1123.2 375.976 1122.95 376.879C1122.69 377.782 1122.4 378.637 1122.1 379.441C1121.8 380.246 1121.49 381.015 1121.13 381.723C1120.78 382.43 1120.41 383.083 1120.01 383.691C1119.61 384.3 1119.15 384.877 1118.66 385.41C1118.18 385.943 1117.67 386.422 1117.1 386.879C1116.54 387.336 1115.93 387.748 1115.29 388.129C1114.65 388.51 1113.98 388.856 1113.26 389.16C1112.54 389.465 1111.75 389.744 1110.95 389.973C1110.14 390.201 1109.3 390.382 1108.41 390.535C1107.53 390.688 1106.63 390.802 1105.66 390.879C1104.7 390.955 1103.68 391.004 1102.63 391.004C1101.63 391.004 1100.68 390.942 1099.76 390.848C1098.83 390.754 1097.92 390.629 1097.07 390.441C1096.22 390.254 1095.41 390.005 1094.63 389.723C1093.86 389.441 1093.12 389.129 1092.41 388.754C1091.71 388.379 1091.04 387.941 1090.41 387.473C1089.79 387.004 1089.22 386.505 1088.66 385.941C1088.11 385.379 1087.58 384.755 1087.1 384.098C1086.62 383.441 1086.19 382.755 1085.79 382.004C1085.39 381.253 1085.02 380.451 1084.66 379.629C1084.31 378.806 1084 377.961 1083.7 377.066C1083.39 376.172 1083.1 375.221 1082.85 374.254C1082.6 373.287 1082.37 372.293 1082.16 371.254C1081.96 370.215 1081.78 369.146 1081.63 368.035C1081.48 366.924 1081.36 365.78 1081.26 364.598C1081.16 363.415 1081.09 362.196 1081.04 360.941C1080.99 359.686 1080.98 358.393 1080.98 357.066L1080.98 350.535L1080.98 343.973L1080.98 337.441L1080.98 330.91L1080.98 324.379L1080.98 317.848L1080.98 311.316L1080.98 304.754C1080.98 304.399 1080.92 304.057 1080.85 303.723C1080.78 303.388 1080.7 303.062 1080.57 302.754C1080.44 302.446 1080.29 302.153 1080.1 301.879C1079.92 301.605 1079.71 301.362 1079.48 301.129C1079.24 300.896 1078.97 300.689 1078.7 300.504C1078.42 300.319 1078.13 300.165 1077.82 300.035C1077.51 299.905 1077.19 299.791 1076.85 299.723C1076.52 299.654 1076.18 299.629 1075.82 299.629L1065.76 299.629L1055.7 299.629L1045.6 299.629L1035.54 299.629L1025.48 299.629L1015.41 299.629L1005.32 299.629L995.258 299.629C994.903 299.629 994.562 299.654 994.227 299.723C993.892 299.791 993.566 299.905 993.258 300.035C992.951 300.165 992.657 300.319 992.383 300.504C992.11 300.689 991.866 300.896 991.633 301.129C991.401 301.362 991.194 301.605 991.008 301.879C990.824 302.153 990.638 302.446 990.508 302.754C990.378 303.062 990.296 303.388 990.227 303.723C990.159 304.057 990.102 304.4 990.102 304.754L990.102 309.723L990.102 314.691L990.102 319.66L990.102 324.66L990.102 329.629L990.102 334.598L990.102 339.566L990.102 344.535C990.102 350.235 990.25 355.722 990.54 361.035C990.829 366.349 991.273 371.483 991.852 376.41C992.431 381.338 993.171 386.087 994.04 390.629C994.908 395.171 995.912 399.505 997.071 403.66C998.229 407.815 999.529 411.766 1000.98 415.535C1002.43 419.304 1004.02 422.902 1005.76 426.285C1007.5 429.668 1009.39 432.851 1011.41 435.848C1013.44 438.845 1015.6 441.644 1017.91 444.254C1020.23 446.865 1022.73 449.313 1025.41 451.598C1028.1 453.882 1030.96 456.014 1034.01 457.973C1037.06 459.931 1040.28 461.716 1043.7 463.348C1047.11 464.979 1050.73 466.448 1054.51 467.754C1058.29 469.059 1062.24 470.213 1066.38 471.191C1070.53 472.17 1074.87 472.976 1079.38 473.629C1083.89 474.282 1088.57 474.772 1093.45 475.098C1098.32 475.424 1103.39 475.598 1108.63 475.598C1113.57 475.598 1118.34 475.386 1122.91 475.004C1127.48 474.622 1131.87 474.049 1136.07 473.285C1140.27 472.521 1144.27 471.588 1148.1 470.441C1151.94 469.295 1155.61 467.939 1159.07 466.41C1162.54 464.882 1165.82 463.164 1168.91 461.254C1172.01 459.343 1174.91 457.234 1177.63 454.941C1180.36 452.649 1182.9 450.179 1185.26 447.504C1187.62 444.829 1189.8 441.967 1191.79 438.91C1193.78 435.854 1195.64 432.634 1197.38 429.285C1199.13 425.936 1200.77 422.458 1202.26 418.816C1203.75 415.175 1205.11 411.375 1206.35 407.441C1207.6 403.508 1208.7 399.449 1209.7 395.223C1210.69 390.997 1211.57 386.616 1212.32 382.098C1213.07 377.579 1213.7 372.909 1214.2 368.098C1214.69 363.287 1215.07 358.325 1215.32 353.223C1215.57 348.12 1215.7 342.868 1215.7 337.473C1215.7 334.797 1215.62 332.171 1215.54 329.598C1215.46 327.024 1215.33 324.508 1215.16 322.035C1215 319.563 1214.79 317.156 1214.54 314.785C1214.29 312.415 1214 310.084 1213.66 307.816C1213.33 305.548 1212.93 303.326 1212.51 301.16C1212.09 298.994 1211.64 296.88 1211.13 294.816C1210.63 292.752 1210.07 290.748 1209.48 288.785C1208.89 286.823 1208.28 284.895 1207.6 283.035C1206.93 281.175 1206.21 279.338 1205.48 277.535C1204.75 275.732 1204.01 273.969 1203.23 272.223C1202.44 270.477 1201.63 268.755 1200.79 267.066C1199.95 265.378 1199.09 263.73 1198.2 262.098C1197.3 260.466 1196.39 258.859 1195.45 257.285C1194.5 255.711 1193.51 254.178 1192.51 252.66C1191.51 251.143 1190.47 249.651 1189.41 248.191C1188.36 246.731 1187.31 245.282 1186.2 243.879C1185.09 242.476 1183.96 241.077 1182.82 239.691C1181.68 238.306 1180.52 236.934 1179.35 235.566C1178.19 234.198 1177.01 232.855 1175.82 231.504C1174.63 230.154 1173.45 228.805 1172.23 227.473C1171.01 226.14 1169.75 224.819 1168.51 223.504C1167.26 222.189 1166 220.864 1164.73 219.566C1163.45 218.269 1162.18 217.002 1160.88 215.723C1159.58 214.443 1158.27 213.172 1156.95 211.91L1150.32 205.535L1143.7 199.16L1137.07 192.816L1130.45 186.441L1123.82 180.098L1117.2 173.723L1110.57 167.348L1103.95 161.004C1102.66 159.786 1101.44 158.561 1100.26 157.379C1099.08 156.196 1097.95 155.058 1096.88 153.91C1095.81 152.763 1094.79 151.616 1093.82 150.504C1092.86 149.392 1091.93 148.3 1091.07 147.223C1090.21 146.146 1089.42 145.076 1088.66 144.035C1087.91 142.994 1087.22 141.979 1086.57 140.973C1085.92 139.966 1085.33 138.975 1084.79 138.004C1084.25 137.033 1083.76 136.096 1083.32 135.16C1082.89 134.225 1082.48 133.298 1082.1 132.379C1081.72 131.46 1081.37 130.532 1081.04 129.629C1080.71 128.726 1080.41 127.828 1080.13 126.941C1079.86 126.055 1079.63 125.187 1079.41 124.316C1079.2 123.446 1078.98 122.577 1078.82 121.723C1078.66 120.869 1078.52 120.029 1078.41 119.191C1078.31 118.354 1078.22 117.513 1078.16 116.691C1078.11 115.87 1078.1 115.058 1078.1 114.254C1078.1 113.449 1078.11 112.678 1078.16 111.91C1078.22 111.142 1078.31 110.392 1078.41 109.66C1078.52 108.929 1078.66 108.199 1078.82 107.504C1078.98 106.809 1079.17 106.13 1079.38 105.473C1079.6 104.815 1079.81 104.187 1080.07 103.566C1080.34 102.945 1080.63 102.338 1080.95 101.754C1081.26 101.169 1081.64 100.614 1082.01 100.066C1082.38 99.5184 1082.77 98.9833 1083.2 98.4726C1083.62 97.9613 1084.05 97.4828 1084.54 97.0351C1085.03 96.5879 1085.56 96.1686 1086.1 95.7851C1086.65 95.4016 1087.21 95.0425 1087.82 94.7226C1088.43 94.4031 1089.09 94.1342 1089.76 93.8789C1090.43 93.6234 1091.12 93.3832 1091.85 93.1914C1092.58 92.9996 1093.34 92.8507 1094.13 92.7226C1094.92 92.5949 1095.75 92.5061 1096.6 92.4414C1097.45 92.3774 1098.35 92.3164 1099.26 92.3164C1100.02 92.3163 1100.75 92.356 1101.48 92.4101C1102.2 92.4647 1102.89 92.5522 1103.57 92.6601C1104.25 92.7689 1104.93 92.9032 1105.57 93.0664C1106.21 93.2294 1106.84 93.4116 1107.45 93.6289C1108.05 93.8465 1108.63 94.1074 1109.2 94.3789C1109.76 94.6509 1110.3 94.928 1110.82 95.2539C1111.35 95.5802 1111.84 95.9355 1112.32 96.3164C1112.81 96.6971 1113.28 97.1312 1113.73 97.5664C1114.17 98.0015 1114.59 98.4322 1114.98 98.9101C1115.37 99.3889 1115.74 99.888 1116.07 100.41C1116.41 100.932 1116.73 101.501 1117.01 102.066C1117.29 102.632 1117.54 103.208 1117.76 103.816C1117.98 104.426 1118.15 105.07 1118.32 105.723C1118.49 106.375 1118.65 107.027 1118.76 107.723C1118.87 108.419 1118.95 109.139 1119.01 109.879C1119.06 110.619 1119.07 111.377 1119.07 112.16L1119.07 115.473L1119.07 118.785L1119.07 122.098L1119.07 125.41L1119.07 128.691L1119.07 132.004L1119.07 135.316L1119.07 138.629C1119.07 138.984 1119.13 139.326 1119.2 139.66C1119.26 139.995 1119.35 140.321 1119.48 140.629C1119.61 140.936 1119.79 141.23 1119.98 141.504C1120.16 141.777 1120.37 142.021 1120.6 142.254C1120.83 142.487 1121.08 142.694 1121.35 142.879C1121.63 143.064 1121.92 143.218 1122.23 143.348C1122.53 143.478 1122.86 143.592 1123.2 143.66C1123.53 143.729 1123.87 143.754 1124.23 143.754L1135.26 143.754L1146.32 143.754L1157.35 143.754L1168.38 143.754L1179.41 143.754L1190.48 143.754L1200.91 143.754L1201.51 143.754C1202.12 143.754 1204.18 143.785 1205.57 143.785C1207.17 143.785 1208.08 143.887 1209.35 143.254C1210.63 142.621 1210.75 142.347 1211.26 141.754C1211.77 141.161 1212.06 140.36 1212.23 139.723C1212.39 139.085 1212.35 137.191 1212.35 137.191L1212.35 134.691L1212.35 133.504C1212.35 133.13 1212.33 132.672 1212.32 132.285C1212.28 130.648 1212.23 129.026 1212.13 127.129C1211.86 121.772 1211.43 116.622 1210.88 111.629C1210.33 106.636 1209.65 101.82 1208.82 97.1914C1207.99 92.5628 1207.02 88.1123 1205.91 83.8476C1204.81 79.5833 1203.58 75.4978 1202.2 71.5976C1200.82 67.6978 1199.29 63.9768 1197.63 60.4414C1195.98 56.906 1194.19 53.5496 1192.26 50.3789C1190.33 47.208 1188.25 44.2167 1186.04 41.4101C1183.83 38.6037 1181.44 35.9907 1178.85 33.5351C1176.26 31.0794 1173.48 28.7965 1170.51 26.6914C1167.54 24.5865 1164.36 22.6642 1161.01 20.9101C1157.65 19.1561 1154.12 17.5634 1150.38 16.1601C1146.65 14.7569 1142.72 13.5249 1138.6 12.4726C1134.48 11.4202 1130.17 10.5492 1125.66 9.84765C1121.16 9.146 1116.48 8.60475 1111.6 8.2539C1106.72 7.90303 1101.65 7.7539 1096.38 7.7539Z" fill="#ffff" fill-rule="nonzero" opacity="1" stroke="#007aff" stroke-linecap="butt" stroke-linejoin="round" stroke-width="0.01"/>
<path d="M1446.68 507.742C1445.22 510.31 1441.9 511.112 1439.44 509.491L1370.89 464.448C1362.54 466.71 1353.92 467.842 1345.05 467.842C1309.19 467.842 1281.82 457.225 1262.94 435.991C1244.05 414.757 1234.61 383.776 1234.61 343.049L1234.61 120.877C1234.61 81.3676 1244.31 51.3442 1263.72 30.8065C1283.13 10.2688 1311.19 0 1347.92 0C1384.64 0 1412.71 10.2688 1432.11 30.8065C1451.52 51.3442 1461.22 81.3676 1461.22 120.877L1461.22 343.049C1461.22 380.992 1452.69 410.841 1435.64 432.597L1470.97 455.057C1473.26 456.515 1474.01 459.516 1472.67 461.881L1446.68 507.742ZM1347.92 383.254C1354.53 383.254 1359.27 380.818 1362.15 375.944C1365.02 371.071 1366.84 365.066 1367.63 357.93C1368.41 350.794 1368.8 343.919 1368.8 337.306L1368.8 122.443C1368.8 112.696 1367.45 103.95 1364.76 96.2052C1362.06 88.46 1356.27 84.5875 1347.39 84.5875C1338.34 84.5875 1332.43 88.373 1329.64 95.9441C1326.86 103.515 1325.46 112.261 1325.46 122.182L1325.46 339.133C1325.46 345.225 1325.86 351.708 1326.64 358.583C1327.42 365.458 1329.38 371.289 1332.51 376.075C1335.65 380.861 1340.78 383.254 1347.92 383.254Z" fill="#ffff" fill-rule="nonzero" opacity="1" stroke="none"/>
<path d="M1611.08 467.842C1572.79 467.842 1544.59 457.094 1526.49 435.599C1508.39 414.104 1499.34 382.471 1499.34 340.7L1499.34 4.17716L1588.63 4.17716L1588.63 337.045C1588.63 344.703 1589.06 352.056 1589.93 359.105C1590.8 366.154 1592.8 371.941 1595.94 376.466C1599.07 380.992 1604.12 383.254 1611.08 383.254C1618.21 383.254 1623.35 381.035 1626.48 376.597C1629.61 372.159 1631.57 366.372 1632.36 359.236C1633.14 352.1 1633.53 344.703 1633.53 337.045L1633.53 4.17716L1722.82 4.17716L1722.82 340.7C1722.82 382.471 1713.77 414.104 1695.67 435.599C1677.56 457.094 1649.37 467.842 1611.08 467.842Z" fill="#ffff" fill-rule="nonzero" opacity="1" stroke="none"/>
<path d="M1763.09 463.665C1760.31 463.665 1758.06 461.413 1758.06 458.635L1758.06 9.20727C1758.06 6.42922 1760.31 4.17716 1763.09 4.17716L1936.83 4.17716C1939.6 4.17716 1941.86 6.42922 1941.86 9.20727L1941.86 87.9117C1941.86 90.6897 1939.6 92.9418 1936.83 92.9418L1856.56 92.9418C1853.78 92.9418 1851.53 95.1938 1851.53 97.9719L1851.53 177.46C1851.53 180.238 1853.78 182.49 1856.56 182.49L1933.17 182.49C1935.95 182.49 1938.2 184.742 1938.2 187.52L1938.2 263.874C1938.2 266.653 1935.95 268.905 1933.17 268.905L1856.56 268.905C1853.78 268.905 1851.53 271.157 1851.53 273.935L1851.53 369.087C1851.53 371.865 1853.78 374.117 1856.56 374.117L1942.83 374.117C1945.61 374.117 1947.86 376.369 1947.86 379.147L1947.86 458.635C1947.86 461.413 1945.61 463.665 1942.83 463.665L1763.09 463.665Z" fill="#ffff" fill-rule="nonzero" opacity="1" stroke="none" vectornator:layerName="Courbe"/>
</g>
</g>
</svg>
